<svg xmlns="http://www.w3.org/2000/svg" width="1920" height="785" viewBox="0 0 1920 785">
  <g id="Group_1" data-name="Group 1" transform="translate(0 -314)">
    <g id="Rectangle_7" data-name="Rectangle 7" transform="translate(689 362)" fill="#d8a3a3" stroke="#707070" stroke-width="1">
      <rect width="221" height="224" stroke="none"/>
      <rect x="0.5" y="0.5" width="220" height="223" fill="none"/>
    </g>
    <g id="Rectangle_9" data-name="Rectangle 9" transform="translate(480 841)" fill="#e9efea" stroke="#707070" stroke-width="1">
      <rect width="160" height="160" stroke="none"/>
      <rect x="0.5" y="0.5" width="159" height="159" fill="none"/>
    </g>
    <g id="Rectangle_27" data-name="Rectangle 27" transform="translate(0 668)" fill="#fffda5" stroke="#707070" stroke-width="1">
      <rect width="182" height="184" stroke="none"/>
      <rect x="0.5" y="0.5" width="181" height="183" fill="none"/>
    </g>
    <g id="Rectangle_28" data-name="Rectangle 28" transform="translate(1501 852)" fill="#fefea5" stroke="#707070" stroke-width="1">
      <rect width="199" height="202" stroke="none"/>
      <rect x="0.5" y="0.5" width="198" height="201" fill="none"/>
    </g>
    <g id="Rectangle_29" data-name="Rectangle 29" transform="translate(1120 635)" fill="#9da0f2" stroke="#707070" stroke-width="1">
      <rect width="160" height="160" stroke="none"/>
      <rect x="0.5" y="0.5" width="159" height="159" fill="none"/>
    </g>
    <g id="Rectangle_30" data-name="Rectangle 30" transform="translate(1440 314)" fill="rgba(236,247,238,0.54)" stroke="#707070" stroke-width="1">
      <rect width="160" height="160" stroke="none"/>
      <rect x="0.5" y="0.5" width="159" height="159" fill="none"/>
    </g>
    <g id="Rectangle_31" data-name="Rectangle 31" transform="translate(910 1001)" fill="#848484" stroke="#707070" stroke-width="1">
      <rect width="117" height="98" stroke="none"/>
      <rect x="0.5" y="0.5" width="116" height="97" fill="none"/>
    </g>
    <g id="Rectangle_36" data-name="Rectangle 36" transform="translate(1812 540)" fill="#848484" stroke="#707070" stroke-width="1">
      <rect width="108" height="98" stroke="none"/>
      <rect x="0.5" y="0.5" width="107" height="97" fill="none"/>
    </g>
    <g id="Rectangle_37" data-name="Rectangle 37" transform="translate(186 345)" fill="#9da0f2" stroke="#707070" stroke-width="1">
      <rect width="108" height="98" stroke="none"/>
      <rect x="0.5" y="0.5" width="107" height="97" fill="none"/>
    </g>
  </g>
</svg>
