<svg xmlns="http://www.w3.org/2000/svg" width="283.029" height="262.738" viewBox="0 0 283.029 262.738"><g transform="translate(-304.138 -737.828)"><line y1="47.935" x2="29.707" transform="translate(522.081 951.416)" fill="none" stroke="#3b71d6" stroke-width="1.5" stroke-dasharray="4 2"/><path d="M33.534,48.722,0,0" transform="matrix(1, -0.017, 0.017, 1, 551.788, 951.416)" fill="none" stroke="#3b71d6" stroke-width="1.5" stroke-dasharray="4 2"/><path d="M0,0H65.05" transform="translate(522.118 999.545)" fill="none" stroke="#3b71d6" stroke-width="1.5" stroke-dasharray="4 2"/><path d="M0,42.011,32.578,0" transform="translate(304.789 958.105) rotate(-8)" fill="none" stroke="#3b71d6" stroke-width="1.5" stroke-dasharray="4 2"/><path d="M31.263,39.236,0,0" transform="translate(335.781 955.632) rotate(10)" fill="none" stroke="#3b71d6" stroke-width="1.5" stroke-dasharray="4 2"/><path d="M0,0H52.635" transform="translate(309.463 999.701)" fill="none" stroke="#3b71d6" stroke-width="1.5" stroke-dasharray="4 2"/><path d="M0,0H73.872" transform="translate(314.949 739.049)" fill="none" stroke="#3b71d6" stroke-width="1.5" stroke-dasharray="4 2"/><path d="M0,0,.735,78.95" transform="translate(314.354 737.835)" fill="none" stroke="#3b71d6" stroke-width="1.5" stroke-dasharray="4 2"/><path d="M0,72.489,77.75,0" transform="matrix(0.998, -0.07, 0.07, 0.998, 309.435, 744.472)" fill="none" stroke="#3b71d6" stroke-width="1.5" stroke-dasharray="4 2"/></g></svg>